# xmcd
#
# Track frame offsets:
#	150
#	18881
#	31975
#	50081
#	72561
#	88498
#	107432
#	121429
#	141111
#	155480
#	170030
#	184494
#	200292
#	215992
#
# Disc length: 3177 seconds
#
# Revision: 1
# Processed by: cddbd v1.5.2PL0 Copyright (c) Steve Scherf et al.
# Submitted via: audiograbber 1.83.01
#
DISCID=d80c670e
DTITLE=Danny Baty - All The Music
DYEAR=2001
DGENRE=Country
TTITLE0=400 Horses
TTITLE1=Color me blue
TTITLE2=When I say I'm sorry again
TTITLE3=Oh no not me
TTITLE4=All alone and lonely
TTITLE5=Before you say goodbye
TTITLE6=This January
TTITLE7=Fire
TTITLE8=Seasons change
TTITLE9=She had her reasons for leaving
TTITLE10=What's new with you
TTITLE11=The rainy day blues
TTITLE12=I still believe in Santa Claus
TTITLE13=Old memories die hard
EXTD=
EXTT0=
EXTT1=
EXTT2=
EXTT3=
EXTT4=
EXTT5=
EXTT6=
EXTT7=
EXTT8=
EXTT9=
EXTT10=
EXTT11=
EXTT12=
EXTT13=
PLAYORDER=
